<?xml version="1.0" encoding="UTF-8" standalone="no"?>
<!-- Created with Inkscape (http://www.inkscape.org/) -->

<svg
   version="1.1"
   id="svg1"
   width="367.67599"
   height="216.496"
   viewBox="0 0 367.67599 216.496"
   sodipodi:docname="numbers.svg"
   inkscape:version="1.4.2 (ebf0e940d0, 2025-05-08)"
   xmlns:inkscape="http://www.inkscape.org/namespaces/inkscape"
   xmlns:sodipodi="http://sodipodi.sourceforge.net/DTD/sodipodi-0.dtd"
   xmlns="http://www.w3.org/2000/svg"
   xmlns:svg="http://www.w3.org/2000/svg">
  <defs
     id="defs1" />
  <sodipodi:namedview
     id="namedview1"
     pagecolor="#ffffff"
     bordercolor="#000000"
     borderopacity="0.25"
     inkscape:showpageshadow="2"
     inkscape:pageopacity="0.0"
     inkscape:pagecheckerboard="0"
     inkscape:deskcolor="#d1d1d1"
     inkscape:zoom="5.5566845"
     inkscape:cx="183.83264"
     inkscape:cy="108.248"
     inkscape:window-width="2560"
     inkscape:window-height="1412"
     inkscape:window-x="0"
     inkscape:window-y="0"
     inkscape:window-maximized="1"
     inkscape:current-layer="g1">
    <inkscape:page
       x="0"
       y="0"
       inkscape:label="1"
       id="page1"
       width="367.67599"
       height="216.496"
       margin="0"
       bleed="0" />
  </sodipodi:namedview>
  <g
     id="g1"
     inkscape:groupmode="layer"
     inkscape:label="1">
    <path
       id="path1"
       d="M -7.08669,-7.08669 V 7.0867 H 7.0867 V -7.08669 Z"
       style="fill:#ff0000;fill-opacity:1;fill-rule:nonzero;stroke:#000000;stroke-width:0.79701;stroke-linecap:butt;stroke-linejoin:miter;stroke-miterlimit:10;stroke-dasharray:none;stroke-opacity:1"
       transform="matrix(1.3333333,0,0,-1.3333333,51.554667,13.76)" />
    <path
       id="path2"
       d="m -7.08669,-21.26009 v 14.1734 H 7.0867 v -14.1734 z"
       style="fill:#ff0000;fill-opacity:1;fill-rule:nonzero;stroke:#000000;stroke-width:0.79701;stroke-linecap:butt;stroke-linejoin:miter;stroke-miterlimit:10;stroke-dasharray:none;stroke-opacity:1"
       transform="matrix(1.3333333,0,0,-1.3333333,51.554667,13.76)" />
    <path
       id="path3"
       d="M -7.08669,-35.43349 V -21.2601 H 7.0867 v -14.17339 z"
       style="fill:#ff0000;fill-opacity:1;fill-rule:nonzero;stroke:#000000;stroke-width:0.79701;stroke-linecap:butt;stroke-linejoin:miter;stroke-miterlimit:10;stroke-dasharray:none;stroke-opacity:1"
       transform="matrix(1.3333333,0,0,-1.3333333,51.554667,13.76)" />
    <path
       id="path4"
       d="m -7.08669,-49.60689 v 14.1734 H 7.0867 v -14.1734 z"
       style="fill:#ff0000;fill-opacity:1;fill-rule:nonzero;stroke:#000000;stroke-width:0.79701;stroke-linecap:butt;stroke-linejoin:miter;stroke-miterlimit:10;stroke-dasharray:none;stroke-opacity:1"
       transform="matrix(1.3333333,0,0,-1.3333333,51.554667,13.76)" />
    <path
       id="path5"
       d="m -7.08669,-63.7803 v 14.1734 H 7.0867 v -14.1734 z"
       style="fill:#ff0000;fill-opacity:1;fill-rule:nonzero;stroke:#000000;stroke-width:0.79701;stroke-linecap:butt;stroke-linejoin:miter;stroke-miterlimit:10;stroke-dasharray:none;stroke-opacity:1"
       transform="matrix(1.3333333,0,0,-1.3333333,51.554667,13.76)" />
    <path
       id="path6"
       d="M -35.43349,-7.08669 V 7.0867 H -21.2601 V -7.08669 Z"
       style="fill:#ff0000;fill-opacity:1;fill-rule:nonzero;stroke:#000000;stroke-width:0.79701;stroke-linecap:butt;stroke-linejoin:miter;stroke-miterlimit:10;stroke-dasharray:none;stroke-opacity:1"
       transform="matrix(1.3333333,0,0,-1.3333333,51.554667,13.76)" />
    <path
       id="path7"
       d="m -35.43349,-21.26009 v 14.1734 h 14.17339 v -14.1734 z"
       style="fill:#ff0000;fill-opacity:1;fill-rule:nonzero;stroke:#000000;stroke-width:0.79701;stroke-linecap:butt;stroke-linejoin:miter;stroke-miterlimit:10;stroke-dasharray:none;stroke-opacity:1"
       transform="matrix(1.3333333,0,0,-1.3333333,51.554667,13.76)" />
    <path
       id="path8"
       d="M -35.43349,-35.43349 V -21.2601 H -21.2601 V -35.43349 Z"
       style="fill:#ff0000;fill-opacity:1;fill-rule:nonzero;stroke:#000000;stroke-width:0.79701;stroke-linecap:butt;stroke-linejoin:miter;stroke-miterlimit:10;stroke-dasharray:none;stroke-opacity:1"
       transform="matrix(1.3333333,0,0,-1.3333333,51.554667,13.76)" />
    <path
       id="path9"
       d="m -35.43349,-49.60689 v 14.1734 h 14.17339 v -14.1734 z"
       style="fill:#ff0000;fill-opacity:1;fill-rule:nonzero;stroke:#000000;stroke-width:0.79701;stroke-linecap:butt;stroke-linejoin:miter;stroke-miterlimit:10;stroke-dasharray:none;stroke-opacity:1"
       transform="matrix(1.3333333,0,0,-1.3333333,51.554667,13.76)" />
    <path
       id="path10"
       d="m -35.43349,-63.7803 v 14.1734 h 14.17339 v -14.1734 z"
       style="fill:#ff0000;fill-opacity:1;fill-rule:nonzero;stroke:#000000;stroke-width:0.79701;stroke-linecap:butt;stroke-linejoin:miter;stroke-miterlimit:10;stroke-dasharray:none;stroke-opacity:1"
       transform="matrix(1.3333333,0,0,-1.3333333,51.554667,13.76)" />
    <path
       id="path11"
       d="M -21.26009,-7.08669 V 7.0867 h 14.1734 V -7.08669 Z"
       style="fill:#ff0000;fill-opacity:1;fill-rule:nonzero;stroke:#000000;stroke-width:0.79701;stroke-linecap:butt;stroke-linejoin:miter;stroke-miterlimit:10;stroke-dasharray:none;stroke-opacity:1"
       transform="matrix(1.3333333,0,0,-1.3333333,51.554667,13.76)" />
    <path
       id="path12"
       d="m -21.26009,-63.7803 v 14.1734 h 14.1734 v -14.1734 z"
       style="fill:#ff0000;fill-opacity:1;fill-rule:nonzero;stroke:#000000;stroke-width:0.79701;stroke-linecap:butt;stroke-linejoin:miter;stroke-miterlimit:10;stroke-dasharray:none;stroke-opacity:1"
       transform="matrix(1.3333333,0,0,-1.3333333,51.554667,13.76)" />
    <path
       id="path13"
       d="M 49.60692,-7.08669 V 7.0867 h 14.1734 V -7.08669 Z"
       style="fill:#ff8a00;fill-opacity:1;fill-rule:nonzero;stroke:#000000;stroke-width:0.79701;stroke-linecap:butt;stroke-linejoin:miter;stroke-miterlimit:10;stroke-dasharray:none;stroke-opacity:1"
       transform="matrix(1.3333333,0,0,-1.3333333,51.554667,13.76)" />
    <path
       id="path14"
       d="m 49.60692,-21.26009 v 14.1734 h 14.1734 v -14.1734 z"
       style="fill:#ff8a00;fill-opacity:1;fill-rule:nonzero;stroke:#000000;stroke-width:0.79701;stroke-linecap:butt;stroke-linejoin:miter;stroke-miterlimit:10;stroke-dasharray:none;stroke-opacity:1"
       transform="matrix(1.3333333,0,0,-1.3333333,51.554667,13.76)" />
    <path
       id="path15"
       d="m 49.60692,-35.43349 v 14.17339 h 14.1734 v -14.17339 z"
       style="fill:#ff8a00;fill-opacity:1;fill-rule:nonzero;stroke:#000000;stroke-width:0.79701;stroke-linecap:butt;stroke-linejoin:miter;stroke-miterlimit:10;stroke-dasharray:none;stroke-opacity:1"
       transform="matrix(1.3333333,0,0,-1.3333333,51.554667,13.76)" />
    <path
       id="path16"
       d="m 49.60692,-49.60689 v 14.1734 h 14.1734 v -14.1734 z"
       style="fill:#ff8a00;fill-opacity:1;fill-rule:nonzero;stroke:#000000;stroke-width:0.79701;stroke-linecap:butt;stroke-linejoin:miter;stroke-miterlimit:10;stroke-dasharray:none;stroke-opacity:1"
       transform="matrix(1.3333333,0,0,-1.3333333,51.554667,13.76)" />
    <path
       id="path17"
       d="m 49.60692,-63.7803 v 14.1734 h 14.1734 v -14.1734 z"
       style="fill:#ff8a00;fill-opacity:1;fill-rule:nonzero;stroke:#000000;stroke-width:0.79701;stroke-linecap:butt;stroke-linejoin:miter;stroke-miterlimit:10;stroke-dasharray:none;stroke-opacity:1"
       transform="matrix(1.3333333,0,0,-1.3333333,51.554667,13.76)" />
    <path
       id="path18"
       d="M 106.30054,-7.08669 V 7.0867 h 14.1734 V -7.08669 Z"
       style="fill:#ebff00;fill-opacity:1;fill-rule:nonzero;stroke:#000000;stroke-width:0.79701;stroke-linecap:butt;stroke-linejoin:miter;stroke-miterlimit:10;stroke-dasharray:none;stroke-opacity:1"
       transform="matrix(1.3333333,0,0,-1.3333333,51.554667,13.76)" />
    <path
       id="path19"
       d="m 106.30054,-21.26009 v 14.1734 h 14.1734 v -14.1734 z"
       style="fill:#ebff00;fill-opacity:1;fill-rule:nonzero;stroke:#000000;stroke-width:0.79701;stroke-linecap:butt;stroke-linejoin:miter;stroke-miterlimit:10;stroke-dasharray:none;stroke-opacity:1"
       transform="matrix(1.3333333,0,0,-1.3333333,51.554667,13.76)" />
    <path
       id="path20"
       d="m 106.30054,-35.43349 v 14.17339 h 14.1734 v -14.17339 z"
       style="fill:#ebff00;fill-opacity:1;fill-rule:nonzero;stroke:#000000;stroke-width:0.79701;stroke-linecap:butt;stroke-linejoin:miter;stroke-miterlimit:10;stroke-dasharray:none;stroke-opacity:1"
       transform="matrix(1.3333333,0,0,-1.3333333,51.554667,13.76)" />
    <path
       id="path21"
       d="m 106.30054,-63.7803 v 14.1734 h 14.1734 v -14.1734 z"
       style="fill:#ebff00;fill-opacity:1;fill-rule:nonzero;stroke:#000000;stroke-width:0.79701;stroke-linecap:butt;stroke-linejoin:miter;stroke-miterlimit:10;stroke-dasharray:none;stroke-opacity:1"
       transform="matrix(1.3333333,0,0,-1.3333333,51.554667,13.76)" />
    <path
       id="path22"
       d="M 77.95374,-7.08669 V 7.0867 H 92.12712 V -7.08669 Z"
       style="fill:#ebff00;fill-opacity:1;fill-rule:nonzero;stroke:#000000;stroke-width:0.79701;stroke-linecap:butt;stroke-linejoin:miter;stroke-miterlimit:10;stroke-dasharray:none;stroke-opacity:1"
       transform="matrix(1.3333333,0,0,-1.3333333,51.554667,13.76)" />
    <path
       id="path23"
       d="M 77.95374,-35.43349 V -21.2601 H 92.12712 V -35.43349 Z"
       style="fill:#ebff00;fill-opacity:1;fill-rule:nonzero;stroke:#000000;stroke-width:0.79701;stroke-linecap:butt;stroke-linejoin:miter;stroke-miterlimit:10;stroke-dasharray:none;stroke-opacity:1"
       transform="matrix(1.3333333,0,0,-1.3333333,51.554667,13.76)" />
    <path
       id="path24"
       d="m 77.95374,-49.60689 v 14.1734 h 14.17338 v -14.1734 z"
       style="fill:#ebff00;fill-opacity:1;fill-rule:nonzero;stroke:#000000;stroke-width:0.79701;stroke-linecap:butt;stroke-linejoin:miter;stroke-miterlimit:10;stroke-dasharray:none;stroke-opacity:1"
       transform="matrix(1.3333333,0,0,-1.3333333,51.554667,13.76)" />
    <path
       id="path25"
       d="m 77.95374,-63.7803 v 14.1734 h 14.17338 v -14.1734 z"
       style="fill:#ebff00;fill-opacity:1;fill-rule:nonzero;stroke:#000000;stroke-width:0.79701;stroke-linecap:butt;stroke-linejoin:miter;stroke-miterlimit:10;stroke-dasharray:none;stroke-opacity:1"
       transform="matrix(1.3333333,0,0,-1.3333333,51.554667,13.76)" />
    <path
       id="path26"
       d="M 92.12714,-7.08669 V 7.0867 h 14.1734 V -7.08669 Z"
       style="fill:#ebff00;fill-opacity:1;fill-rule:nonzero;stroke:#000000;stroke-width:0.79701;stroke-linecap:butt;stroke-linejoin:miter;stroke-miterlimit:10;stroke-dasharray:none;stroke-opacity:1"
       transform="matrix(1.3333333,0,0,-1.3333333,51.554667,13.76)" />
    <path
       id="path27"
       d="m 92.12714,-35.43349 v 14.17339 h 14.1734 v -14.17339 z"
       style="fill:#ebff00;fill-opacity:1;fill-rule:nonzero;stroke:#000000;stroke-width:0.79701;stroke-linecap:butt;stroke-linejoin:miter;stroke-miterlimit:10;stroke-dasharray:none;stroke-opacity:1"
       transform="matrix(1.3333333,0,0,-1.3333333,51.554667,13.76)" />
    <path
       id="path28"
       d="m 92.12714,-63.7803 v 14.1734 h 14.1734 v -14.1734 z"
       style="fill:#ebff00;fill-opacity:1;fill-rule:nonzero;stroke:#000000;stroke-width:0.79701;stroke-linecap:butt;stroke-linejoin:miter;stroke-miterlimit:10;stroke-dasharray:none;stroke-opacity:1"
       transform="matrix(1.3333333,0,0,-1.3333333,51.554667,13.76)" />
    <path
       id="path29"
       d="M 162.99416,-7.08669 V 7.0867 h 14.1734 V -7.08669 Z"
       style="fill:#61ff00;fill-opacity:1;fill-rule:nonzero;stroke:#000000;stroke-width:0.79701;stroke-linecap:butt;stroke-linejoin:miter;stroke-miterlimit:10;stroke-dasharray:none;stroke-opacity:1"
       transform="matrix(1.3333333,0,0,-1.3333333,51.554667,13.76)" />
    <path
       id="path30"
       d="m 162.99416,-21.26009 v 14.1734 h 14.1734 v -14.1734 z"
       style="fill:#61ff00;fill-opacity:1;fill-rule:nonzero;stroke:#000000;stroke-width:0.79701;stroke-linecap:butt;stroke-linejoin:miter;stroke-miterlimit:10;stroke-dasharray:none;stroke-opacity:1"
       transform="matrix(1.3333333,0,0,-1.3333333,51.554667,13.76)" />
    <path
       id="path31"
       d="m 162.99416,-35.43349 v 14.17339 h 14.1734 v -14.17339 z"
       style="fill:#61ff00;fill-opacity:1;fill-rule:nonzero;stroke:#000000;stroke-width:0.79701;stroke-linecap:butt;stroke-linejoin:miter;stroke-miterlimit:10;stroke-dasharray:none;stroke-opacity:1"
       transform="matrix(1.3333333,0,0,-1.3333333,51.554667,13.76)" />
    <path
       id="path32"
       d="m 162.99416,-49.60689 v 14.1734 h 14.1734 v -14.1734 z"
       style="fill:#61ff00;fill-opacity:1;fill-rule:nonzero;stroke:#000000;stroke-width:0.79701;stroke-linecap:butt;stroke-linejoin:miter;stroke-miterlimit:10;stroke-dasharray:none;stroke-opacity:1"
       transform="matrix(1.3333333,0,0,-1.3333333,51.554667,13.76)" />
    <path
       id="path33"
       d="m 162.99416,-63.7803 v 14.1734 h 14.1734 v -14.1734 z"
       style="fill:#61ff00;fill-opacity:1;fill-rule:nonzero;stroke:#000000;stroke-width:0.79701;stroke-linecap:butt;stroke-linejoin:miter;stroke-miterlimit:10;stroke-dasharray:none;stroke-opacity:1"
       transform="matrix(1.3333333,0,0,-1.3333333,51.554667,13.76)" />
    <path
       id="path34"
       d="M 134.64735,-7.08669 V 7.0867 h 14.17341 V -7.08669 Z"
       style="fill:#61ff00;fill-opacity:1;fill-rule:nonzero;stroke:#000000;stroke-width:0.79701;stroke-linecap:butt;stroke-linejoin:miter;stroke-miterlimit:10;stroke-dasharray:none;stroke-opacity:1"
       transform="matrix(1.3333333,0,0,-1.3333333,51.554667,13.76)" />
    <path
       id="path35"
       d="m 134.64735,-35.43349 v 14.17339 h 14.17341 v -14.17339 z"
       style="fill:#61ff00;fill-opacity:1;fill-rule:nonzero;stroke:#000000;stroke-width:0.79701;stroke-linecap:butt;stroke-linejoin:miter;stroke-miterlimit:10;stroke-dasharray:none;stroke-opacity:1"
       transform="matrix(1.3333333,0,0,-1.3333333,51.554667,13.76)" />
    <path
       id="path36"
       d="m 134.64735,-63.7803 v 14.1734 h 14.17341 v -14.1734 z"
       style="fill:#61ff00;fill-opacity:1;fill-rule:nonzero;stroke:#000000;stroke-width:0.79701;stroke-linecap:butt;stroke-linejoin:miter;stroke-miterlimit:10;stroke-dasharray:none;stroke-opacity:1"
       transform="matrix(1.3333333,0,0,-1.3333333,51.554667,13.76)" />
    <path
       id="path37"
       d="M 148.82077,-7.08669 V 7.0867 h 14.17339 V -7.08669 Z"
       style="fill:#61ff00;fill-opacity:1;fill-rule:nonzero;stroke:#000000;stroke-width:0.79701;stroke-linecap:butt;stroke-linejoin:miter;stroke-miterlimit:10;stroke-dasharray:none;stroke-opacity:1"
       transform="matrix(1.3333333,0,0,-1.3333333,51.554667,13.76)" />
    <path
       id="path38"
       d="m 148.82077,-35.43349 v 14.17339 h 14.17339 v -14.17339 z"
       style="fill:#61ff00;fill-opacity:1;fill-rule:nonzero;stroke:#000000;stroke-width:0.79701;stroke-linecap:butt;stroke-linejoin:miter;stroke-miterlimit:10;stroke-dasharray:none;stroke-opacity:1"
       transform="matrix(1.3333333,0,0,-1.3333333,51.554667,13.76)" />
    <path
       id="path39"
       d="m 148.82077,-63.7803 v 14.1734 h 14.17339 v -14.1734 z"
       style="fill:#61ff00;fill-opacity:1;fill-rule:nonzero;stroke:#000000;stroke-width:0.79701;stroke-linecap:butt;stroke-linejoin:miter;stroke-miterlimit:10;stroke-dasharray:none;stroke-opacity:1"
       transform="matrix(1.3333333,0,0,-1.3333333,51.554667,13.76)" />
    <path
       id="path40"
       d="M 219.68777,-7.08669 V 7.0867 h 14.17341 V -7.08669 Z"
       style="fill:#00ff29;fill-opacity:1;fill-rule:nonzero;stroke:#000000;stroke-width:0.79701;stroke-linecap:butt;stroke-linejoin:miter;stroke-miterlimit:10;stroke-dasharray:none;stroke-opacity:1"
       transform="matrix(1.3333333,0,0,-1.3333333,51.554667,13.76)" />
    <path
       id="path41"
       d="m 219.68777,-21.26009 v 14.1734 h 14.17341 v -14.1734 z"
       style="fill:#00ff29;fill-opacity:1;fill-rule:nonzero;stroke:#000000;stroke-width:0.79701;stroke-linecap:butt;stroke-linejoin:miter;stroke-miterlimit:10;stroke-dasharray:none;stroke-opacity:1"
       transform="matrix(1.3333333,0,0,-1.3333333,51.554667,13.76)" />
    <path
       id="path42"
       d="m 219.68777,-35.43349 v 14.17339 h 14.17341 v -14.17339 z"
       style="fill:#00ff29;fill-opacity:1;fill-rule:nonzero;stroke:#000000;stroke-width:0.79701;stroke-linecap:butt;stroke-linejoin:miter;stroke-miterlimit:10;stroke-dasharray:none;stroke-opacity:1"
       transform="matrix(1.3333333,0,0,-1.3333333,51.554667,13.76)" />
    <path
       id="path43"
       d="m 219.68777,-49.60689 v 14.1734 h 14.17341 v -14.1734 z"
       style="fill:#00ff29;fill-opacity:1;fill-rule:nonzero;stroke:#000000;stroke-width:0.79701;stroke-linecap:butt;stroke-linejoin:miter;stroke-miterlimit:10;stroke-dasharray:none;stroke-opacity:1"
       transform="matrix(1.3333333,0,0,-1.3333333,51.554667,13.76)" />
    <path
       id="path44"
       d="m 219.68777,-63.7803 v 14.1734 h 14.17341 v -14.1734 z"
       style="fill:#00ff29;fill-opacity:1;fill-rule:nonzero;stroke:#000000;stroke-width:0.79701;stroke-linecap:butt;stroke-linejoin:miter;stroke-miterlimit:10;stroke-dasharray:none;stroke-opacity:1"
       transform="matrix(1.3333333,0,0,-1.3333333,51.554667,13.76)" />
    <path
       id="path45"
       d="M 191.34097,-7.08669 V 7.0867 h 14.1734 V -7.08669 Z"
       style="fill:#00ff29;fill-opacity:1;fill-rule:nonzero;stroke:#000000;stroke-width:0.79701;stroke-linecap:butt;stroke-linejoin:miter;stroke-miterlimit:10;stroke-dasharray:none;stroke-opacity:1"
       transform="matrix(1.3333333,0,0,-1.3333333,51.554667,13.76)" />
    <path
       id="path46"
       d="m 191.34097,-21.26009 v 14.1734 h 14.1734 v -14.1734 z"
       style="fill:#00ff29;fill-opacity:1;fill-rule:nonzero;stroke:#000000;stroke-width:0.79701;stroke-linecap:butt;stroke-linejoin:miter;stroke-miterlimit:10;stroke-dasharray:none;stroke-opacity:1"
       transform="matrix(1.3333333,0,0,-1.3333333,51.554667,13.76)" />
    <path
       id="path47"
       d="m 191.34097,-35.43349 v 14.17339 h 14.1734 v -14.17339 z"
       style="fill:#00ff29;fill-opacity:1;fill-rule:nonzero;stroke:#000000;stroke-width:0.79701;stroke-linecap:butt;stroke-linejoin:miter;stroke-miterlimit:10;stroke-dasharray:none;stroke-opacity:1"
       transform="matrix(1.3333333,0,0,-1.3333333,51.554667,13.76)" />
    <path
       id="path48"
       d="m 205.51439,-35.43349 v 14.17339 h 14.17338 v -14.17339 z"
       style="fill:#00ff29;fill-opacity:1;fill-rule:nonzero;stroke:#000000;stroke-width:0.79701;stroke-linecap:butt;stroke-linejoin:miter;stroke-miterlimit:10;stroke-dasharray:none;stroke-opacity:1"
       transform="matrix(1.3333333,0,0,-1.3333333,51.554667,13.76)" />
    <path
       id="path49"
       d="m -7.08669,-92.1271 v 14.17338 H 7.0867 V -92.1271 Z"
       style="fill:#00ffb3;fill-opacity:1;fill-rule:nonzero;stroke:#000000;stroke-width:0.79701;stroke-linecap:butt;stroke-linejoin:miter;stroke-miterlimit:10;stroke-dasharray:none;stroke-opacity:1"
       transform="matrix(1.3333333,0,0,-1.3333333,51.554667,13.76)" />
    <path
       id="path50"
       d="m -7.08669,-120.47392 v 14.1734 H 7.0867 v -14.1734 z"
       style="fill:#00ffb3;fill-opacity:1;fill-rule:nonzero;stroke:#000000;stroke-width:0.79701;stroke-linecap:butt;stroke-linejoin:miter;stroke-miterlimit:10;stroke-dasharray:none;stroke-opacity:1"
       transform="matrix(1.3333333,0,0,-1.3333333,51.554667,13.76)" />
    <path
       id="path51"
       d="m -7.08669,-134.64732 v 14.1734 H 7.0867 v -14.1734 z"
       style="fill:#00ffb3;fill-opacity:1;fill-rule:nonzero;stroke:#000000;stroke-width:0.79701;stroke-linecap:butt;stroke-linejoin:miter;stroke-miterlimit:10;stroke-dasharray:none;stroke-opacity:1"
       transform="matrix(1.3333333,0,0,-1.3333333,51.554667,13.76)" />
    <path
       id="path52"
       d="m -7.08669,-148.82074 v 14.1734 H 7.0867 v -14.1734 z"
       style="fill:#00ffb3;fill-opacity:1;fill-rule:nonzero;stroke:#000000;stroke-width:0.79701;stroke-linecap:butt;stroke-linejoin:miter;stroke-miterlimit:10;stroke-dasharray:none;stroke-opacity:1"
       transform="matrix(1.3333333,0,0,-1.3333333,51.554667,13.76)" />
    <path
       id="path53"
       d="m -35.43349,-92.1271 v 14.17338 H -21.2601 V -92.1271 Z"
       style="fill:#00ffb3;fill-opacity:1;fill-rule:nonzero;stroke:#000000;stroke-width:0.79701;stroke-linecap:butt;stroke-linejoin:miter;stroke-miterlimit:10;stroke-dasharray:none;stroke-opacity:1"
       transform="matrix(1.3333333,0,0,-1.3333333,51.554667,13.76)" />
    <path
       id="path54"
       d="m -35.43349,-106.3005 v 14.1734 h 14.17339 v -14.1734 z"
       style="fill:#00ffb3;fill-opacity:1;fill-rule:nonzero;stroke:#000000;stroke-width:0.79701;stroke-linecap:butt;stroke-linejoin:miter;stroke-miterlimit:10;stroke-dasharray:none;stroke-opacity:1"
       transform="matrix(1.3333333,0,0,-1.3333333,51.554667,13.76)" />
    <path
       id="path55"
       d="m -35.43349,-120.47392 v 14.1734 h 14.17339 v -14.1734 z"
       style="fill:#00ffb3;fill-opacity:1;fill-rule:nonzero;stroke:#000000;stroke-width:0.79701;stroke-linecap:butt;stroke-linejoin:miter;stroke-miterlimit:10;stroke-dasharray:none;stroke-opacity:1"
       transform="matrix(1.3333333,0,0,-1.3333333,51.554667,13.76)" />
    <path
       id="path56"
       d="m -35.43349,-148.82074 v 14.1734 h 14.17339 v -14.1734 z"
       style="fill:#00ffb3;fill-opacity:1;fill-rule:nonzero;stroke:#000000;stroke-width:0.79701;stroke-linecap:butt;stroke-linejoin:miter;stroke-miterlimit:10;stroke-dasharray:none;stroke-opacity:1"
       transform="matrix(1.3333333,0,0,-1.3333333,51.554667,13.76)" />
    <path
       id="path57"
       d="m -21.26009,-92.1271 v 14.17338 h 14.1734 V -92.1271 Z"
       style="fill:#00ffb3;fill-opacity:1;fill-rule:nonzero;stroke:#000000;stroke-width:0.79701;stroke-linecap:butt;stroke-linejoin:miter;stroke-miterlimit:10;stroke-dasharray:none;stroke-opacity:1"
       transform="matrix(1.3333333,0,0,-1.3333333,51.554667,13.76)" />
    <path
       id="path58"
       d="m -21.26009,-120.47392 v 14.1734 h 14.1734 v -14.1734 z"
       style="fill:#00ffb3;fill-opacity:1;fill-rule:nonzero;stroke:#000000;stroke-width:0.79701;stroke-linecap:butt;stroke-linejoin:miter;stroke-miterlimit:10;stroke-dasharray:none;stroke-opacity:1"
       transform="matrix(1.3333333,0,0,-1.3333333,51.554667,13.76)" />
    <path
       id="path59"
       d="m -21.26009,-148.82074 v 14.1734 h 14.1734 v -14.1734 z"
       style="fill:#00ffb3;fill-opacity:1;fill-rule:nonzero;stroke:#000000;stroke-width:0.79701;stroke-linecap:butt;stroke-linejoin:miter;stroke-miterlimit:10;stroke-dasharray:none;stroke-opacity:1"
       transform="matrix(1.3333333,0,0,-1.3333333,51.554667,13.76)" />
    <path
       id="path60"
       d="m 49.60692,-92.1271 v 14.17338 h 14.1734 V -92.1271 Z"
       style="fill:#00b3ff;fill-opacity:1;fill-rule:nonzero;stroke:#000000;stroke-width:0.79701;stroke-linecap:butt;stroke-linejoin:miter;stroke-miterlimit:10;stroke-dasharray:none;stroke-opacity:1"
       transform="matrix(1.3333333,0,0,-1.3333333,51.554667,13.76)" />
    <path
       id="path61"
       d="m 49.60692,-120.47392 v 14.1734 h 14.1734 v -14.1734 z"
       style="fill:#00b3ff;fill-opacity:1;fill-rule:nonzero;stroke:#000000;stroke-width:0.79701;stroke-linecap:butt;stroke-linejoin:miter;stroke-miterlimit:10;stroke-dasharray:none;stroke-opacity:1"
       transform="matrix(1.3333333,0,0,-1.3333333,51.554667,13.76)" />
    <path
       id="path62"
       d="m 49.60692,-134.64732 v 14.1734 h 14.1734 v -14.1734 z"
       style="fill:#00b3ff;fill-opacity:1;fill-rule:nonzero;stroke:#000000;stroke-width:0.79701;stroke-linecap:butt;stroke-linejoin:miter;stroke-miterlimit:10;stroke-dasharray:none;stroke-opacity:1"
       transform="matrix(1.3333333,0,0,-1.3333333,51.554667,13.76)" />
    <path
       id="path63"
       d="m 49.60692,-148.82074 v 14.1734 h 14.1734 v -14.1734 z"
       style="fill:#00b3ff;fill-opacity:1;fill-rule:nonzero;stroke:#000000;stroke-width:0.79701;stroke-linecap:butt;stroke-linejoin:miter;stroke-miterlimit:10;stroke-dasharray:none;stroke-opacity:1"
       transform="matrix(1.3333333,0,0,-1.3333333,51.554667,13.76)" />
    <path
       id="path64"
       d="m 21.26012,-92.1271 v 14.17338 H 35.4335 V -92.1271 Z"
       style="fill:#00b3ff;fill-opacity:1;fill-rule:nonzero;stroke:#000000;stroke-width:0.79701;stroke-linecap:butt;stroke-linejoin:miter;stroke-miterlimit:10;stroke-dasharray:none;stroke-opacity:1"
       transform="matrix(1.3333333,0,0,-1.3333333,51.554667,13.76)" />
    <path
       id="path65"
       d="m 21.26012,-106.3005 v 14.1734 H 35.4335 v -14.1734 z"
       style="fill:#00b3ff;fill-opacity:1;fill-rule:nonzero;stroke:#000000;stroke-width:0.79701;stroke-linecap:butt;stroke-linejoin:miter;stroke-miterlimit:10;stroke-dasharray:none;stroke-opacity:1"
       transform="matrix(1.3333333,0,0,-1.3333333,51.554667,13.76)" />
    <path
       id="path66"
       d="m 21.26012,-120.47392 v 14.1734 H 35.4335 v -14.1734 z"
       style="fill:#00b3ff;fill-opacity:1;fill-rule:nonzero;stroke:#000000;stroke-width:0.79701;stroke-linecap:butt;stroke-linejoin:miter;stroke-miterlimit:10;stroke-dasharray:none;stroke-opacity:1"
       transform="matrix(1.3333333,0,0,-1.3333333,51.554667,13.76)" />
    <path
       id="path67"
       d="m 21.26012,-134.64732 v 14.1734 H 35.4335 v -14.1734 z"
       style="fill:#00b3ff;fill-opacity:1;fill-rule:nonzero;stroke:#000000;stroke-width:0.79701;stroke-linecap:butt;stroke-linejoin:miter;stroke-miterlimit:10;stroke-dasharray:none;stroke-opacity:1"
       transform="matrix(1.3333333,0,0,-1.3333333,51.554667,13.76)" />
    <path
       id="path68"
       d="m 21.26012,-148.82074 v 14.1734 H 35.4335 v -14.1734 z"
       style="fill:#00b3ff;fill-opacity:1;fill-rule:nonzero;stroke:#000000;stroke-width:0.79701;stroke-linecap:butt;stroke-linejoin:miter;stroke-miterlimit:10;stroke-dasharray:none;stroke-opacity:1"
       transform="matrix(1.3333333,0,0,-1.3333333,51.554667,13.76)" />
    <path
       id="path69"
       d="m 35.43352,-92.1271 v 14.17338 h 14.1734 V -92.1271 Z"
       style="fill:#00b3ff;fill-opacity:1;fill-rule:nonzero;stroke:#000000;stroke-width:0.79701;stroke-linecap:butt;stroke-linejoin:miter;stroke-miterlimit:10;stroke-dasharray:none;stroke-opacity:1"
       transform="matrix(1.3333333,0,0,-1.3333333,51.554667,13.76)" />
    <path
       id="path70"
       d="m 35.43352,-120.47392 v 14.1734 h 14.1734 v -14.1734 z"
       style="fill:#00b3ff;fill-opacity:1;fill-rule:nonzero;stroke:#000000;stroke-width:0.79701;stroke-linecap:butt;stroke-linejoin:miter;stroke-miterlimit:10;stroke-dasharray:none;stroke-opacity:1"
       transform="matrix(1.3333333,0,0,-1.3333333,51.554667,13.76)" />
    <path
       id="path71"
       d="m 35.43352,-148.82074 v 14.1734 h 14.1734 v -14.1734 z"
       style="fill:#00b3ff;fill-opacity:1;fill-rule:nonzero;stroke:#000000;stroke-width:0.79701;stroke-linecap:butt;stroke-linejoin:miter;stroke-miterlimit:10;stroke-dasharray:none;stroke-opacity:1"
       transform="matrix(1.3333333,0,0,-1.3333333,51.554667,13.76)" />
    <path
       id="path72"
       d="m 106.30054,-92.1271 v 14.17338 h 14.1734 V -92.1271 Z"
       style="fill:#0029ff;fill-opacity:1;fill-rule:nonzero;stroke:#000000;stroke-width:0.79701;stroke-linecap:butt;stroke-linejoin:miter;stroke-miterlimit:10;stroke-dasharray:none;stroke-opacity:1"
       transform="matrix(1.3333333,0,0,-1.3333333,51.554667,13.76)" />
    <path
       id="path73"
       d="m 106.30054,-106.3005 v 14.1734 h 14.1734 v -14.1734 z"
       style="fill:#0029ff;fill-opacity:1;fill-rule:nonzero;stroke:#000000;stroke-width:0.79701;stroke-linecap:butt;stroke-linejoin:miter;stroke-miterlimit:10;stroke-dasharray:none;stroke-opacity:1"
       transform="matrix(1.3333333,0,0,-1.3333333,51.554667,13.76)" />
    <path
       id="path74"
       d="m 106.30054,-120.47392 v 14.1734 h 14.1734 v -14.1734 z"
       style="fill:#0029ff;fill-opacity:1;fill-rule:nonzero;stroke:#000000;stroke-width:0.79701;stroke-linecap:butt;stroke-linejoin:miter;stroke-miterlimit:10;stroke-dasharray:none;stroke-opacity:1"
       transform="matrix(1.3333333,0,0,-1.3333333,51.554667,13.76)" />
    <path
       id="path75"
       d="m 106.30054,-134.64732 v 14.1734 h 14.1734 v -14.1734 z"
       style="fill:#0029ff;fill-opacity:1;fill-rule:nonzero;stroke:#000000;stroke-width:0.79701;stroke-linecap:butt;stroke-linejoin:miter;stroke-miterlimit:10;stroke-dasharray:none;stroke-opacity:1"
       transform="matrix(1.3333333,0,0,-1.3333333,51.554667,13.76)" />
    <path
       id="path76"
       d="m 106.30054,-148.82074 v 14.1734 h 14.1734 v -14.1734 z"
       style="fill:#0029ff;fill-opacity:1;fill-rule:nonzero;stroke:#000000;stroke-width:0.79701;stroke-linecap:butt;stroke-linejoin:miter;stroke-miterlimit:10;stroke-dasharray:none;stroke-opacity:1"
       transform="matrix(1.3333333,0,0,-1.3333333,51.554667,13.76)" />
    <path
       id="path77"
       d="m 77.95374,-92.1271 v 14.17338 H 92.12712 V -92.1271 Z"
       style="fill:#0029ff;fill-opacity:1;fill-rule:nonzero;stroke:#000000;stroke-width:0.79701;stroke-linecap:butt;stroke-linejoin:miter;stroke-miterlimit:10;stroke-dasharray:none;stroke-opacity:1"
       transform="matrix(1.3333333,0,0,-1.3333333,51.554667,13.76)" />
    <path
       id="path78"
       d="m 92.12714,-92.1271 v 14.17338 h 14.1734 V -92.1271 Z"
       style="fill:#0029ff;fill-opacity:1;fill-rule:nonzero;stroke:#000000;stroke-width:0.79701;stroke-linecap:butt;stroke-linejoin:miter;stroke-miterlimit:10;stroke-dasharray:none;stroke-opacity:1"
       transform="matrix(1.3333333,0,0,-1.3333333,51.554667,13.76)" />
    <path
       id="path79"
       d="m 162.99416,-92.1271 v 14.17338 h 14.1734 V -92.1271 Z"
       style="fill:#6100ff;fill-opacity:1;fill-rule:nonzero;stroke:#000000;stroke-width:0.79701;stroke-linecap:butt;stroke-linejoin:miter;stroke-miterlimit:10;stroke-dasharray:none;stroke-opacity:1"
       transform="matrix(1.3333333,0,0,-1.3333333,51.554667,13.76)" />
    <path
       id="path80"
       d="m 162.99416,-106.3005 v 14.1734 h 14.1734 v -14.1734 z"
       style="fill:#6100ff;fill-opacity:1;fill-rule:nonzero;stroke:#000000;stroke-width:0.79701;stroke-linecap:butt;stroke-linejoin:miter;stroke-miterlimit:10;stroke-dasharray:none;stroke-opacity:1"
       transform="matrix(1.3333333,0,0,-1.3333333,51.554667,13.76)" />
    <path
       id="path81"
       d="m 162.99416,-120.47392 v 14.1734 h 14.1734 v -14.1734 z"
       style="fill:#6100ff;fill-opacity:1;fill-rule:nonzero;stroke:#000000;stroke-width:0.79701;stroke-linecap:butt;stroke-linejoin:miter;stroke-miterlimit:10;stroke-dasharray:none;stroke-opacity:1"
       transform="matrix(1.3333333,0,0,-1.3333333,51.554667,13.76)" />
    <path
       id="path82"
       d="m 162.99416,-134.64732 v 14.1734 h 14.1734 v -14.1734 z"
       style="fill:#6100ff;fill-opacity:1;fill-rule:nonzero;stroke:#000000;stroke-width:0.79701;stroke-linecap:butt;stroke-linejoin:miter;stroke-miterlimit:10;stroke-dasharray:none;stroke-opacity:1"
       transform="matrix(1.3333333,0,0,-1.3333333,51.554667,13.76)" />
    <path
       id="path83"
       d="m 162.99416,-148.82074 v 14.1734 h 14.1734 v -14.1734 z"
       style="fill:#6100ff;fill-opacity:1;fill-rule:nonzero;stroke:#000000;stroke-width:0.79701;stroke-linecap:butt;stroke-linejoin:miter;stroke-miterlimit:10;stroke-dasharray:none;stroke-opacity:1"
       transform="matrix(1.3333333,0,0,-1.3333333,51.554667,13.76)" />
    <path
       id="path84"
       d="m 134.64735,-92.1271 v 14.17338 h 14.17341 V -92.1271 Z"
       style="fill:#6100ff;fill-opacity:1;fill-rule:nonzero;stroke:#000000;stroke-width:0.79701;stroke-linecap:butt;stroke-linejoin:miter;stroke-miterlimit:10;stroke-dasharray:none;stroke-opacity:1"
       transform="matrix(1.3333333,0,0,-1.3333333,51.554667,13.76)" />
    <path
       id="path85"
       d="m 134.64735,-106.3005 v 14.1734 h 14.17341 v -14.1734 z"
       style="fill:#6100ff;fill-opacity:1;fill-rule:nonzero;stroke:#000000;stroke-width:0.79701;stroke-linecap:butt;stroke-linejoin:miter;stroke-miterlimit:10;stroke-dasharray:none;stroke-opacity:1"
       transform="matrix(1.3333333,0,0,-1.3333333,51.554667,13.76)" />
    <path
       id="path86"
       d="m 134.64735,-120.47392 v 14.1734 h 14.17341 v -14.1734 z"
       style="fill:#6100ff;fill-opacity:1;fill-rule:nonzero;stroke:#000000;stroke-width:0.79701;stroke-linecap:butt;stroke-linejoin:miter;stroke-miterlimit:10;stroke-dasharray:none;stroke-opacity:1"
       transform="matrix(1.3333333,0,0,-1.3333333,51.554667,13.76)" />
    <path
       id="path87"
       d="m 134.64735,-134.64732 v 14.1734 h 14.17341 v -14.1734 z"
       style="fill:#6100ff;fill-opacity:1;fill-rule:nonzero;stroke:#000000;stroke-width:0.79701;stroke-linecap:butt;stroke-linejoin:miter;stroke-miterlimit:10;stroke-dasharray:none;stroke-opacity:1"
       transform="matrix(1.3333333,0,0,-1.3333333,51.554667,13.76)" />
    <path
       id="path88"
       d="m 134.64735,-148.82074 v 14.1734 h 14.17341 v -14.1734 z"
       style="fill:#6100ff;fill-opacity:1;fill-rule:nonzero;stroke:#000000;stroke-width:0.79701;stroke-linecap:butt;stroke-linejoin:miter;stroke-miterlimit:10;stroke-dasharray:none;stroke-opacity:1"
       transform="matrix(1.3333333,0,0,-1.3333333,51.554667,13.76)" />
    <path
       id="path89"
       d="m 148.82077,-92.1271 v 14.17338 h 14.17339 V -92.1271 Z"
       style="fill:#6100ff;fill-opacity:1;fill-rule:nonzero;stroke:#000000;stroke-width:0.79701;stroke-linecap:butt;stroke-linejoin:miter;stroke-miterlimit:10;stroke-dasharray:none;stroke-opacity:1"
       transform="matrix(1.3333333,0,0,-1.3333333,51.554667,13.76)" />
    <path
       id="path90"
       d="m 148.82077,-120.47392 v 14.1734 h 14.17339 v -14.1734 z"
       style="fill:#6100ff;fill-opacity:1;fill-rule:nonzero;stroke:#000000;stroke-width:0.79701;stroke-linecap:butt;stroke-linejoin:miter;stroke-miterlimit:10;stroke-dasharray:none;stroke-opacity:1"
       transform="matrix(1.3333333,0,0,-1.3333333,51.554667,13.76)" />
    <path
       id="path91"
       d="m 148.82077,-148.82074 v 14.1734 h 14.17339 v -14.1734 z"
       style="fill:#6100ff;fill-opacity:1;fill-rule:nonzero;stroke:#000000;stroke-width:0.79701;stroke-linecap:butt;stroke-linejoin:miter;stroke-miterlimit:10;stroke-dasharray:none;stroke-opacity:1"
       transform="matrix(1.3333333,0,0,-1.3333333,51.554667,13.76)" />
    <path
       id="path92"
       d="m 219.68777,-92.1271 v 14.17338 h 14.17341 V -92.1271 Z"
       style="fill:#eb00ff;fill-opacity:1;fill-rule:nonzero;stroke:#000000;stroke-width:0.79701;stroke-linecap:butt;stroke-linejoin:miter;stroke-miterlimit:10;stroke-dasharray:none;stroke-opacity:1"
       transform="matrix(1.3333333,0,0,-1.3333333,51.554667,13.76)" />
    <path
       id="path93"
       d="m 219.68777,-106.3005 v 14.1734 h 14.17341 v -14.1734 z"
       style="fill:#eb00ff;fill-opacity:1;fill-rule:nonzero;stroke:#000000;stroke-width:0.79701;stroke-linecap:butt;stroke-linejoin:miter;stroke-miterlimit:10;stroke-dasharray:none;stroke-opacity:1"
       transform="matrix(1.3333333,0,0,-1.3333333,51.554667,13.76)" />
    <path
       id="path94"
       d="m 219.68777,-120.47392 v 14.1734 h 14.17341 v -14.1734 z"
       style="fill:#eb00ff;fill-opacity:1;fill-rule:nonzero;stroke:#000000;stroke-width:0.79701;stroke-linecap:butt;stroke-linejoin:miter;stroke-miterlimit:10;stroke-dasharray:none;stroke-opacity:1"
       transform="matrix(1.3333333,0,0,-1.3333333,51.554667,13.76)" />
    <path
       id="path95"
       d="m 219.68777,-134.64732 v 14.1734 h 14.17341 v -14.1734 z"
       style="fill:#eb00ff;fill-opacity:1;fill-rule:nonzero;stroke:#000000;stroke-width:0.79701;stroke-linecap:butt;stroke-linejoin:miter;stroke-miterlimit:10;stroke-dasharray:none;stroke-opacity:1"
       transform="matrix(1.3333333,0,0,-1.3333333,51.554667,13.76)" />
    <path
       id="path96"
       d="m 219.68777,-148.82074 v 14.1734 h 14.17341 v -14.1734 z"
       style="fill:#eb00ff;fill-opacity:1;fill-rule:nonzero;stroke:#000000;stroke-width:0.79701;stroke-linecap:butt;stroke-linejoin:miter;stroke-miterlimit:10;stroke-dasharray:none;stroke-opacity:1"
       transform="matrix(1.3333333,0,0,-1.3333333,51.554667,13.76)" />
    <path
       id="path97"
       d="m 191.34097,-92.1271 v 14.17338 h 14.1734 V -92.1271 Z"
       style="fill:#eb00ff;fill-opacity:1;fill-rule:nonzero;stroke:#000000;stroke-width:0.79701;stroke-linecap:butt;stroke-linejoin:miter;stroke-miterlimit:10;stroke-dasharray:none;stroke-opacity:1"
       transform="matrix(1.3333333,0,0,-1.3333333,51.554667,13.76)" />
    <path
       id="path98"
       d="m 191.34097,-106.3005 v 14.1734 h 14.1734 v -14.1734 z"
       style="fill:#eb00ff;fill-opacity:1;fill-rule:nonzero;stroke:#000000;stroke-width:0.79701;stroke-linecap:butt;stroke-linejoin:miter;stroke-miterlimit:10;stroke-dasharray:none;stroke-opacity:1"
       transform="matrix(1.3333333,0,0,-1.3333333,51.554667,13.76)" />
    <path
       id="path99"
       d="m 191.34097,-120.47392 v 14.1734 h 14.1734 v -14.1734 z"
       style="fill:#eb00ff;fill-opacity:1;fill-rule:nonzero;stroke:#000000;stroke-width:0.79701;stroke-linecap:butt;stroke-linejoin:miter;stroke-miterlimit:10;stroke-dasharray:none;stroke-opacity:1"
       transform="matrix(1.3333333,0,0,-1.3333333,51.554667,13.76)" />
    <path
       id="path100"
       d="m 191.34097,-148.82074 v 14.1734 h 14.1734 v -14.1734 z"
       style="fill:#eb00ff;fill-opacity:1;fill-rule:nonzero;stroke:#000000;stroke-width:0.79701;stroke-linecap:butt;stroke-linejoin:miter;stroke-miterlimit:10;stroke-dasharray:none;stroke-opacity:1"
       transform="matrix(1.3333333,0,0,-1.3333333,51.554667,13.76)" />
    <path
       id="path101"
       d="m 205.51439,-92.1271 v 14.17338 h 14.17338 V -92.1271 Z"
       style="fill:#eb00ff;fill-opacity:1;fill-rule:nonzero;stroke:#000000;stroke-width:0.79701;stroke-linecap:butt;stroke-linejoin:miter;stroke-miterlimit:10;stroke-dasharray:none;stroke-opacity:1"
       transform="matrix(1.3333333,0,0,-1.3333333,51.554667,13.76)" />
    <path
       id="path102"
       d="m 205.51439,-120.47392 v 14.1734 h 14.17338 v -14.1734 z"
       style="fill:#eb00ff;fill-opacity:1;fill-rule:nonzero;stroke:#000000;stroke-width:0.79701;stroke-linecap:butt;stroke-linejoin:miter;stroke-miterlimit:10;stroke-dasharray:none;stroke-opacity:1"
       transform="matrix(1.3333333,0,0,-1.3333333,51.554667,13.76)" />
    <path
       id="path103"
       d="m 205.51439,-148.82074 v 14.1734 h 14.17338 v -14.1734 z"
       style="fill:#eb00ff;fill-opacity:1;fill-rule:nonzero;stroke:#000000;stroke-width:0.79701;stroke-linecap:butt;stroke-linejoin:miter;stroke-miterlimit:10;stroke-dasharray:none;stroke-opacity:1"
       transform="matrix(1.3333333,0,0,-1.3333333,51.554667,13.76)" />
  </g>
</svg>
