<?xml version="1.0" encoding="UTF-8" standalone="no"?>
<!-- Created with Inkscape (http://www.inkscape.org/) -->

<svg
   version="1.1"
   id="svg1"
   width="405.47198"
   height="159.80267"
   viewBox="0 0 405.47198 159.80267"
   sodipodi:docname="poly.svg"
   inkscape:version="1.4.2 (ebf0e940d0, 2025-05-08)"
   xmlns:inkscape="http://www.inkscape.org/namespaces/inkscape"
   xmlns:sodipodi="http://sodipodi.sourceforge.net/DTD/sodipodi-0.dtd"
   xmlns="http://www.w3.org/2000/svg"
   xmlns:svg="http://www.w3.org/2000/svg">
  <defs
     id="defs1" />
  <sodipodi:namedview
     id="namedview1"
     pagecolor="#ffffff"
     bordercolor="#000000"
     borderopacity="0.25"
     inkscape:showpageshadow="2"
     inkscape:pageopacity="0.0"
     inkscape:pagecheckerboard="0"
     inkscape:deskcolor="#d1d1d1"
     inkscape:zoom="5.9412242"
     inkscape:cx="202.73599"
     inkscape:cy="79.865695"
     inkscape:window-width="2560"
     inkscape:window-height="1412"
     inkscape:window-x="0"
     inkscape:window-y="0"
     inkscape:window-maximized="1"
     inkscape:current-layer="g1">
    <inkscape:page
       x="0"
       y="0"
       inkscape:label="1"
       id="page1"
       width="405.47198"
       height="159.80267"
       margin="0"
       bleed="0" />
  </sodipodi:namedview>
  <g
     id="g1"
     inkscape:groupmode="layer"
     inkscape:label="1">
    <path
       id="path1"
       d="M -7.08669,-7.08669 V 7.0867 H 7.0867 V -7.08669 Z"
       style="fill:#ff0000;fill-opacity:1;fill-rule:nonzero;stroke:#000000;stroke-width:0.79701;stroke-linecap:butt;stroke-linejoin:miter;stroke-miterlimit:10;stroke-dasharray:none;stroke-opacity:1"
       transform="matrix(1.3333333,0,0,-1.3333333,13.76,13.76)" />
    <path
       id="path2"
       d="M 49.60692,-7.08669 V 7.0867 h 14.1734 V -7.08669 Z"
       style="fill:#ff8a00;fill-opacity:1;fill-rule:nonzero;stroke:#000000;stroke-width:0.79701;stroke-linecap:butt;stroke-linejoin:miter;stroke-miterlimit:10;stroke-dasharray:none;stroke-opacity:1"
       transform="matrix(1.3333333,0,0,-1.3333333,13.76,13.76)" />
    <path
       id="path3"
       d="m 49.60692,-21.26009 v 14.1734 h 14.1734 v -14.1734 z"
       style="fill:#ff8a00;fill-opacity:1;fill-rule:nonzero;stroke:#000000;stroke-width:0.79701;stroke-linecap:butt;stroke-linejoin:miter;stroke-miterlimit:10;stroke-dasharray:none;stroke-opacity:1"
       transform="matrix(1.3333333,0,0,-1.3333333,13.76,13.76)" />
    <path
       id="path4"
       d="M 106.30054,-7.08669 V 7.0867 h 14.1734 V -7.08669 Z"
       style="fill:#ebff00;fill-opacity:1;fill-rule:nonzero;stroke:#000000;stroke-width:0.79701;stroke-linecap:butt;stroke-linejoin:miter;stroke-miterlimit:10;stroke-dasharray:none;stroke-opacity:1"
       transform="matrix(1.3333333,0,0,-1.3333333,13.76,13.76)" />
    <path
       id="path5"
       d="m 106.30054,-21.26009 v 14.1734 h 14.1734 v -14.1734 z"
       style="fill:#ebff00;fill-opacity:1;fill-rule:nonzero;stroke:#000000;stroke-width:0.79701;stroke-linecap:butt;stroke-linejoin:miter;stroke-miterlimit:10;stroke-dasharray:none;stroke-opacity:1"
       transform="matrix(1.3333333,0,0,-1.3333333,13.76,13.76)" />
    <path
       id="path6"
       d="m 106.30054,-35.43349 v 14.17339 h 14.1734 v -14.17339 z"
       style="fill:#ebff00;fill-opacity:1;fill-rule:nonzero;stroke:#000000;stroke-width:0.79701;stroke-linecap:butt;stroke-linejoin:miter;stroke-miterlimit:10;stroke-dasharray:none;stroke-opacity:1"
       transform="matrix(1.3333333,0,0,-1.3333333,13.76,13.76)" />
    <path
       id="path7"
       d="M 162.99416,-7.08669 V 7.0867 h 14.1734 V -7.08669 Z"
       style="fill:#61ff00;fill-opacity:1;fill-rule:nonzero;stroke:#000000;stroke-width:0.79701;stroke-linecap:butt;stroke-linejoin:miter;stroke-miterlimit:10;stroke-dasharray:none;stroke-opacity:1"
       transform="matrix(1.3333333,0,0,-1.3333333,13.76,13.76)" />
    <path
       id="path8"
       d="m 162.99416,-21.26009 v 14.1734 h 14.1734 v -14.1734 z"
       style="fill:#61ff00;fill-opacity:1;fill-rule:nonzero;stroke:#000000;stroke-width:0.79701;stroke-linecap:butt;stroke-linejoin:miter;stroke-miterlimit:10;stroke-dasharray:none;stroke-opacity:1"
       transform="matrix(1.3333333,0,0,-1.3333333,13.76,13.76)" />
    <path
       id="path9"
       d="m 177.16756,-21.26009 v 14.1734 h 14.1734 v -14.1734 z"
       style="fill:#61ff00;fill-opacity:1;fill-rule:nonzero;stroke:#000000;stroke-width:0.79701;stroke-linecap:butt;stroke-linejoin:miter;stroke-miterlimit:10;stroke-dasharray:none;stroke-opacity:1"
       transform="matrix(1.3333333,0,0,-1.3333333,13.76,13.76)" />
    <path
       id="path10"
       d="M 219.68777,-7.08669 V 7.0867 h 14.17341 V -7.08669 Z"
       style="fill:#00ff29;fill-opacity:1;fill-rule:nonzero;stroke:#000000;stroke-width:0.79701;stroke-linecap:butt;stroke-linejoin:miter;stroke-miterlimit:10;stroke-dasharray:none;stroke-opacity:1"
       transform="matrix(1.3333333,0,0,-1.3333333,13.76,13.76)" />
    <path
       id="path11"
       d="m 219.68777,-21.26009 v 14.1734 h 14.17341 v -14.1734 z"
       style="fill:#00ff29;fill-opacity:1;fill-rule:nonzero;stroke:#000000;stroke-width:0.79701;stroke-linecap:butt;stroke-linejoin:miter;stroke-miterlimit:10;stroke-dasharray:none;stroke-opacity:1"
       transform="matrix(1.3333333,0,0,-1.3333333,13.76,13.76)" />
    <path
       id="path12"
       d="m 219.68777,-35.43349 v 14.17339 h 14.17341 v -14.17339 z"
       style="fill:#00ff29;fill-opacity:1;fill-rule:nonzero;stroke:#000000;stroke-width:0.79701;stroke-linecap:butt;stroke-linejoin:miter;stroke-miterlimit:10;stroke-dasharray:none;stroke-opacity:1"
       transform="matrix(1.3333333,0,0,-1.3333333,13.76,13.76)" />
    <path
       id="path13"
       d="m 219.68777,-49.60689 v 14.1734 h 14.17341 v -14.1734 z"
       style="fill:#00ff29;fill-opacity:1;fill-rule:nonzero;stroke:#000000;stroke-width:0.79701;stroke-linecap:butt;stroke-linejoin:miter;stroke-miterlimit:10;stroke-dasharray:none;stroke-opacity:1"
       transform="matrix(1.3333333,0,0,-1.3333333,13.76,13.76)" />
    <path
       id="path14"
       d="M 276.3814,-7.08669 V 7.0867 h 14.1734 V -7.08669 Z"
       style="fill:#00ffb3;fill-opacity:1;fill-rule:nonzero;stroke:#000000;stroke-width:0.79701;stroke-linecap:butt;stroke-linejoin:miter;stroke-miterlimit:10;stroke-dasharray:none;stroke-opacity:1"
       transform="matrix(1.3333333,0,0,-1.3333333,13.76,13.76)" />
    <path
       id="path15"
       d="M 262.20801,-35.43349 V -21.2601 H 276.3814 V -35.43349 Z"
       style="fill:#00ffb3;fill-opacity:1;fill-rule:nonzero;stroke:#000000;stroke-width:0.79701;stroke-linecap:butt;stroke-linejoin:miter;stroke-miterlimit:10;stroke-dasharray:none;stroke-opacity:1"
       transform="matrix(1.3333333,0,0,-1.3333333,13.76,13.76)" />
    <path
       id="path16"
       d="m 276.3814,-21.26009 v 14.1734 h 14.1734 v -14.1734 z"
       style="fill:#00ffb3;fill-opacity:1;fill-rule:nonzero;stroke:#000000;stroke-width:0.79701;stroke-linecap:butt;stroke-linejoin:miter;stroke-miterlimit:10;stroke-dasharray:none;stroke-opacity:1"
       transform="matrix(1.3333333,0,0,-1.3333333,13.76,13.76)" />
    <path
       id="path17"
       d="m 276.3814,-35.43349 v 14.17339 h 14.1734 v -14.17339 z"
       style="fill:#00ffb3;fill-opacity:1;fill-rule:nonzero;stroke:#000000;stroke-width:0.79701;stroke-linecap:butt;stroke-linejoin:miter;stroke-miterlimit:10;stroke-dasharray:none;stroke-opacity:1"
       transform="matrix(1.3333333,0,0,-1.3333333,13.76,13.76)" />
    <path
       id="path18"
       d="m 21.26012,-77.9537 v 14.1734 H 35.4335 v -14.1734 z"
       style="fill:#00b3ff;fill-opacity:1;fill-rule:nonzero;stroke:#000000;stroke-width:0.79701;stroke-linecap:butt;stroke-linejoin:miter;stroke-miterlimit:10;stroke-dasharray:none;stroke-opacity:1"
       transform="matrix(1.3333333,0,0,-1.3333333,13.76,13.76)" />
    <path
       id="path19"
       d="M 21.26012,-92.12709 V -77.9537 H 35.4335 v -14.17339 z"
       style="fill:#00b3ff;fill-opacity:1;fill-rule:nonzero;stroke:#000000;stroke-width:0.79701;stroke-linecap:butt;stroke-linejoin:miter;stroke-miterlimit:10;stroke-dasharray:none;stroke-opacity:1"
       transform="matrix(1.3333333,0,0,-1.3333333,13.76,13.76)" />
    <path
       id="path20"
       d="m 21.26012,-106.3005 v 14.1734 H 35.4335 v -14.1734 z"
       style="fill:#00b3ff;fill-opacity:1;fill-rule:nonzero;stroke:#000000;stroke-width:0.79701;stroke-linecap:butt;stroke-linejoin:miter;stroke-miterlimit:10;stroke-dasharray:none;stroke-opacity:1"
       transform="matrix(1.3333333,0,0,-1.3333333,13.76,13.76)" />
    <path
       id="path21"
       d="m 35.4335,-106.3005 v 14.1734 h 14.1734 v -14.1734 z"
       style="fill:#00b3ff;fill-opacity:1;fill-rule:nonzero;stroke:#000000;stroke-width:0.79701;stroke-linecap:butt;stroke-linejoin:miter;stroke-miterlimit:10;stroke-dasharray:none;stroke-opacity:1"
       transform="matrix(1.3333333,0,0,-1.3333333,13.76,13.76)" />
    <path
       id="path22"
       d="m 77.95374,-77.9537 v 14.1734 h 14.17338 v -14.1734 z"
       style="fill:#0029ff;fill-opacity:1;fill-rule:nonzero;stroke:#000000;stroke-width:0.79701;stroke-linecap:butt;stroke-linejoin:miter;stroke-miterlimit:10;stroke-dasharray:none;stroke-opacity:1"
       transform="matrix(1.3333333,0,0,-1.3333333,13.76,13.76)" />
    <path
       id="path23"
       d="M 77.95374,-92.12709 V -77.9537 H 92.12712 V -92.12709 Z"
       style="fill:#0029ff;fill-opacity:1;fill-rule:nonzero;stroke:#000000;stroke-width:0.79701;stroke-linecap:butt;stroke-linejoin:miter;stroke-miterlimit:10;stroke-dasharray:none;stroke-opacity:1"
       transform="matrix(1.3333333,0,0,-1.3333333,13.76,13.76)" />
    <path
       id="path24"
       d="m 92.12712,-92.12709 v 14.17339 h 14.1734 v -14.17339 z"
       style="fill:#0029ff;fill-opacity:1;fill-rule:nonzero;stroke:#000000;stroke-width:0.79701;stroke-linecap:butt;stroke-linejoin:miter;stroke-miterlimit:10;stroke-dasharray:none;stroke-opacity:1"
       transform="matrix(1.3333333,0,0,-1.3333333,13.76,13.76)" />
    <path
       id="path25"
       d="m 92.12712,-77.9537 v 14.1734 h 14.1734 v -14.1734 z"
       style="fill:#0029ff;fill-opacity:1;fill-rule:nonzero;stroke:#000000;stroke-width:0.79701;stroke-linecap:butt;stroke-linejoin:miter;stroke-miterlimit:10;stroke-dasharray:none;stroke-opacity:1"
       transform="matrix(1.3333333,0,0,-1.3333333,13.76,13.76)" />
    <path
       id="path26"
       d="m 134.64735,-77.9537 v 14.1734 h 14.17341 v -14.1734 z"
       style="fill:#6100ff;fill-opacity:1;fill-rule:nonzero;stroke:#000000;stroke-width:0.79701;stroke-linecap:butt;stroke-linejoin:miter;stroke-miterlimit:10;stroke-dasharray:none;stroke-opacity:1"
       transform="matrix(1.3333333,0,0,-1.3333333,13.76,13.76)" />
    <path
       id="path27"
       d="m 120.47395,-92.12709 v 14.17339 h 14.1734 v -14.17339 z"
       style="fill:#6100ff;fill-opacity:1;fill-rule:nonzero;stroke:#000000;stroke-width:0.79701;stroke-linecap:butt;stroke-linejoin:miter;stroke-miterlimit:10;stroke-dasharray:none;stroke-opacity:1"
       transform="matrix(1.3333333,0,0,-1.3333333,13.76,13.76)" />
    <path
       id="path28"
       d="m 134.64735,-92.12709 v 14.17339 h 14.17341 v -14.17339 z"
       style="fill:#6100ff;fill-opacity:1;fill-rule:nonzero;stroke:#000000;stroke-width:0.79701;stroke-linecap:butt;stroke-linejoin:miter;stroke-miterlimit:10;stroke-dasharray:none;stroke-opacity:1"
       transform="matrix(1.3333333,0,0,-1.3333333,13.76,13.76)" />
    <path
       id="path29"
       d="m 148.82076,-77.9537 v 14.1734 h 14.17338 v -14.1734 z"
       style="fill:#6100ff;fill-opacity:1;fill-rule:nonzero;stroke:#000000;stroke-width:0.79701;stroke-linecap:butt;stroke-linejoin:miter;stroke-miterlimit:10;stroke-dasharray:none;stroke-opacity:1"
       transform="matrix(1.3333333,0,0,-1.3333333,13.76,13.76)" />
    <path
       id="path30"
       d="m 191.34097,-77.9537 v 14.1734 h 14.1734 v -14.1734 z"
       style="fill:#eb00ff;fill-opacity:1;fill-rule:nonzero;stroke:#000000;stroke-width:0.79701;stroke-linecap:butt;stroke-linejoin:miter;stroke-miterlimit:10;stroke-dasharray:none;stroke-opacity:1"
       transform="matrix(1.3333333,0,0,-1.3333333,13.76,13.76)" />
    <path
       id="path31"
       d="m 177.16757,-77.9537 v 14.1734 h 14.1734 v -14.1734 z"
       style="fill:#eb00ff;fill-opacity:1;fill-rule:nonzero;stroke:#000000;stroke-width:0.79701;stroke-linecap:butt;stroke-linejoin:miter;stroke-miterlimit:10;stroke-dasharray:none;stroke-opacity:1"
       transform="matrix(1.3333333,0,0,-1.3333333,13.76,13.76)" />
    <path
       id="path32"
       d="m 191.34097,-92.12709 v 14.17339 h 14.1734 v -14.17339 z"
       style="fill:#eb00ff;fill-opacity:1;fill-rule:nonzero;stroke:#000000;stroke-width:0.79701;stroke-linecap:butt;stroke-linejoin:miter;stroke-miterlimit:10;stroke-dasharray:none;stroke-opacity:1"
       transform="matrix(1.3333333,0,0,-1.3333333,13.76,13.76)" />
    <path
       id="path33"
       d="m 205.51437,-77.9537 v 14.1734 h 14.17339 v -14.1734 z"
       style="fill:#eb00ff;fill-opacity:1;fill-rule:nonzero;stroke:#000000;stroke-width:0.79701;stroke-linecap:butt;stroke-linejoin:miter;stroke-miterlimit:10;stroke-dasharray:none;stroke-opacity:1"
       transform="matrix(1.3333333,0,0,-1.3333333,13.76,13.76)" />
    <path
       id="path34"
       d="m 248.03459,-77.9537 v 14.1734 H 262.208 v -14.1734 z"
       style="fill:#ff0099;fill-opacity:1;fill-rule:nonzero;stroke:#000000;stroke-width:0.79701;stroke-linecap:butt;stroke-linejoin:miter;stroke-miterlimit:10;stroke-dasharray:none;stroke-opacity:1"
       transform="matrix(1.3333333,0,0,-1.3333333,13.76,13.76)" />
    <path
       id="path35"
       d="m 233.86119,-77.9537 v 14.1734 h 14.1734 v -14.1734 z"
       style="fill:#ff0099;fill-opacity:1;fill-rule:nonzero;stroke:#000000;stroke-width:0.79701;stroke-linecap:butt;stroke-linejoin:miter;stroke-miterlimit:10;stroke-dasharray:none;stroke-opacity:1"
       transform="matrix(1.3333333,0,0,-1.3333333,13.76,13.76)" />
    <path
       id="path36"
       d="M 248.03459,-92.12709 V -77.9537 H 262.208 v -14.17339 z"
       style="fill:#ff0099;fill-opacity:1;fill-rule:nonzero;stroke:#000000;stroke-width:0.79701;stroke-linecap:butt;stroke-linejoin:miter;stroke-miterlimit:10;stroke-dasharray:none;stroke-opacity:1"
       transform="matrix(1.3333333,0,0,-1.3333333,13.76,13.76)" />
    <path
       id="path37"
       d="m 262.208,-92.12709 v 14.17339 h 14.17338 v -14.17339 z"
       style="fill:#ff0099;fill-opacity:1;fill-rule:nonzero;stroke:#000000;stroke-width:0.79701;stroke-linecap:butt;stroke-linejoin:miter;stroke-miterlimit:10;stroke-dasharray:none;stroke-opacity:1"
       transform="matrix(1.3333333,0,0,-1.3333333,13.76,13.76)" />
  </g>
</svg>
